HIERARCHY
ROOT Hips
{
	OFFSET 0.000000 0.000000 0.000000
	CHANNELS 6 Xposition Yposition Zposition Xrotation Yrotation Zrotation
	JOINT LeftUpLeg_virtual
	{
		OFFSET 0.000000 0.000000 0.000000
		CHANNELS 3 Xrotation Yrotation Zrotation
		JOINT LeftUpLeg
		{
			OFFSET 13.026900 -6.336304 -1.092800
			CHANNELS 3 Xrotation Yrotation Zrotation
			JOINT LeftLeg
			{
				OFFSET 0.524474 -46.096886 9.782700
				CHANNELS 3 Xrotation Yrotation Zrotation
				JOINT LeftFoot
				{
					OFFSET -0.524474 -53.427422 -12.948200
					CHANNELS 3 Xrotation Yrotation Zrotation
					JOINT LeftToeBase
					{
						OFFSET 0.192200 -14.009700 16.364100
						CHANNELS 3 Xrotation Yrotation Zrotation
						JOINT LeftToe_End
						{
							OFFSET -1.784700 -0.561700 9.474800
							CHANNELS 3 Xrotation Yrotation Zrotation
							End Site
							{
								OFFSET 0 0 0
							}
						}
					}
				}
			}
		}
	}
	JOINT RightUpLeg_virtual
	{
		OFFSET 0.000000 0.000000 0.000000
		CHANNELS 3 Xrotation Yrotation Zrotation
		JOINT RightUpLeg
		{
			OFFSET -12.883000 -6.336304 -1.092800
			CHANNELS 3 Xrotation Yrotation Zrotation
			JOINT RightLeg
			{
				OFFSET -0.524587 -46.096825 9.782800
				CHANNELS 3 Xrotation Yrotation Zrotation
				JOINT RightFoot
				{
					OFFSET 0.524587 -53.427383 -12.948300
					CHANNELS 3 Xrotation Yrotation Zrotation
					JOINT RightToeBase
					{
						OFFSET -0.192200 -14.009700 16.364100
						CHANNELS 3 Xrotation Yrotation Zrotation
						JOINT RightToe_End
						{
							OFFSET 1.784700 -0.561700 9.474800
							CHANNELS 3 Xrotation Yrotation Zrotation
							End Site
							{
								OFFSET 0 0 0
							}
						}
					}
				}
			}
		}
	}
	JOINT Spine_virtual
	{
		OFFSET 0.000000 0.000000 0.000000
		CHANNELS 3 Xrotation Yrotation Zrotation
		JOINT Spine
		{
			OFFSET 0.072000 7.257294 -0.789700
			CHANNELS 3 Xrotation Yrotation Zrotation
			JOINT Spine1
			{
				OFFSET 0.000000 12.508769 -0.658067
				CHANNELS 3 Xrotation Yrotation Zrotation
				JOINT Spine1_split
				{
					OFFSET 0.000000 12.508769 -0.658067
					CHANNELS 3 Xrotation Yrotation Zrotation
					JOINT Spine2
					{
						OFFSET 0.000000 12.508769 -0.658067
						CHANNELS 3 Xrotation Yrotation Zrotation
						JOINT Neck_virtual
						{
							OFFSET 0.000000 0.000000 0.000000
							CHANNELS 3 Xrotation Yrotation Zrotation
							JOINT Neck
							{
								OFFSET 0.000000 14.033295 7.520400
								CHANNELS 3 Xrotation Yrotation Zrotation
								JOINT Head
								{
									OFFSET 0.000000 8.198502 5.703100
									CHANNELS 3 Xrotation Yrotation Zrotation
									JOINT HeadTop_End
									{
										OFFSET 0.000000 17.760803 13.332701
										CHANNELS 3 Xrotation Yrotation Zrotation
										End Site
										{
											OFFSET 0 0 0
										}
									}
								}
							}
						}
						JOINT LeftShoulder_virtual
						{
							OFFSET 0.000000 0.000000 0.000000
							CHANNELS 3 Xrotation Yrotation Zrotation
							JOINT LeftShoulder
							{
								OFFSET 6.292450 5.785301 -0.669000
								CHANNELS 3 Xrotation Yrotation Zrotation
								JOINT LeftShoulder_split
								{
									OFFSET 6.292450 5.785301 -0.669000
									CHANNELS 3 Xrotation Yrotation Zrotation
									JOINT LeftArm
									{
										OFFSET 13.907140 -6.093903 1.965100
										CHANNELS 3 Xrotation Yrotation Zrotation
										JOINT LeftForeArm
										{
											OFFSET 34.140198 0.000000 0.000000
											CHANNELS 3 Xrotation Yrotation Zrotation
											JOINT LeftHand
											{
												OFFSET 40.960209 0.000000 0.000000
												CHANNELS 3 Xrotation Yrotation Zrotation
												End Site
												{
													OFFSET 0 0 0
												}
											}
										}
									}
								}
							}
						}
						JOINT RightShoulder_virtual
						{
							OFFSET 0.000000 0.000000 0.000000
							CHANNELS 3 Xrotation Yrotation Zrotation
							JOINT RightShoulder
							{
								OFFSET -6.292450 5.785301 -0.669000
								CHANNELS 3 Xrotation Yrotation Zrotation
								JOINT RightShoulder_split
								{
									OFFSET -6.292450 5.785301 -0.669000
									CHANNELS 3 Xrotation Yrotation Zrotation
									JOINT RightArm
									{
										OFFSET -13.907140 -6.093903 1.965100
										CHANNELS 3 Xrotation Yrotation Zrotation
										JOINT RightForeArm
										{
											OFFSET -34.140198 0.000000 0.000000
											CHANNELS 3 Xrotation Yrotation Zrotation
											JOINT RightHand
											{
												OFFSET -40.960209 0.000000 0.000000
												CHANNELS 3 Xrotation Yrotation Zrotation
												End Site
												{
													OFFSET 0 0 0
												}
											}
										}
									}
								}
							}
						}
					}
				}
			}
		}
	}
}
MOTION
Frames: 7
Frame Time: 0.03333333
2.367512 110.105469 4.263283 0.000000 0.000000 0.000000 -31.965985 -41.618743 -20.764707 -4.458241 10.036460 5.146186 36.393160 2.650603 -1.508663 -5.392857 5.411464 2.712865 -5.819602 -0.010355 0.101904 0.000000 0.000000 0.000000 -29.465218 -37.469086 -18.625147 12.643010 -11.229107 -5.350915 22.173159 5.667297 -4.725080 -12.165422 -12.762260 6.428031 -3.031479 0.278926 0.324527 0.000000 0.000000 0.000000 -31.874126 -39.310235 -20.870850 11.953379 -5.217253 0.288124 2.788223 -2.092828 0.287383 0.452675 1.890775 -0.006889 0.000000 0.000000 0.000000 2.877014 -2.148993 -0.002418 0.397887 0.679035 -1.842324 -6.783227 -2.254165 5.116009 0.000000 0.000000 0.000000 3.291097 -2.344475 0.168821 0.295542 -17.449791 -10.503647 0.376395 -0.295057 -0.687030 -19.843689 2.233565 -38.642280 2.612067 -66.550317 3.216149 0.000000 0.000000 0.000000 2.910418 -2.157063 0.185131 1.023679 10.923734 15.393925 0.728137 1.716662 -0.981404 -10.516685 -5.537163 62.393826 -0.343577 41.869326 1.280322 0.000000 0.000000 0.000000 
3.019519 110.198486 5.134960 0.000000 0.000000 0.000000 -32.919353 -43.630265 -22.543748 -2.433890 11.593993 5.555780 34.647634 2.744833 -2.617017 -6.773136 7.241018 5.453064 -5.843864 -0.127003 0.273129 0.000000 0.000000 0.000000 -30.370269 -39.247404 -20.261970 11.637351 -10.824923 -5.907952 22.158186 5.965135 -5.223122 -10.640266 -12.605661 7.621923 -2.934597 0.251006 0.073149 0.000000 0.000000 0.000000 -32.909002 -40.982935 -22.540907 11.984884 -5.263615 0.264358 2.807997 -2.086232 0.282100 0.420681 1.834683 0.016184 0.000000 0.000000 0.000000 2.869439 -2.131366 0.001804 0.489323 0.628543 -1.816639 -6.902609 -2.162213 5.011551 0.000000 0.000000 0.000000 3.290538 -2.308555 0.162785 0.328677 -17.537301 -10.473592 0.191456 -0.248009 -0.686694 -19.618632 2.143785 -38.472246 2.653971 -66.696852 3.226248 0.000000 0.000000 0.000000 2.990898 -2.127876 0.170450 1.031319 10.956048 15.517659 0.780006 1.657428 -1.087971 -10.582043 -5.576605 62.539090 -0.299356 41.780769 1.270016 0.000000 0.000000 0.000000 
3.721459 110.260345 6.056648 0.000000 0.000000 0.000000 -33.959004 -45.510609 -24.306871 -0.627904 12.689464 5.707520 33.181390 2.793066 -3.517322 -8.181067 8.993909 7.631222 -5.765571 -0.204657 0.342259 0.000000 0.000000 0.000000 -31.294069 -41.044577 -21.878068 10.753408 -10.269639 -6.300130 22.325196 5.639282 -5.725083 -9.471714 -12.975308 8.015199 -2.441845 0.226370 -0.001528 0.000000 0.000000 0.000000 -33.992622 -42.646680 -24.253035 11.954475 -5.272741 0.178416 2.829298 -2.076641 0.290206 0.437766 1.776084 0.088452 0.000000 0.000000 0.000000 2.884376 -2.112829 0.011185 0.590821 0.592654 -1.810555 -7.042268 -2.058228 4.875811 0.000000 0.000000 0.000000 3.315120 -2.274148 0.169374 0.380874 -17.575670 -10.368098 -0.009124 -0.260253 -0.770620 -19.450060 2.065585 -38.339529 2.704952 -66.747908 3.263064 0.000000 0.000000 0.000000 3.091297 -2.095790 0.167737 1.056497 11.013312 15.636832 0.876656 1.616583 -1.148287 -10.593922 -5.611495 62.613567 -0.256881 41.853979 1.259328 0.000000 0.000000 0.000000 
4.447607 110.350899 7.024061 0.000000 0.000000 0.000000 -35.044966 -47.179313 -26.021096 0.928703 13.318201 5.555229 31.983761 2.845138 -4.141405 -9.357170 10.619860 9.191685 -5.452385 -0.217667 0.284326 0.000000 0.000000 0.000000 -32.353489 -42.896037 -23.561964 9.937274 -9.692102 -6.393163 22.913295 4.697185 -6.187857 -8.683720 -13.725646 7.634030 -1.893554 0.211700 0.091104 0.000000 0.000000 0.000000 -35.165154 -44.332866 -26.014451 11.840050 -5.250170 0.062132 2.854791 -2.077908 0.310718 0.531622 1.693491 0.175842 0.000000 0.000000 0.000000 2.936872 -2.100665 0.030995 0.671403 0.565984 -1.810630 -7.206835 -1.960083 4.734012 0.000000 0.000000 0.000000 3.362508 -2.251800 0.186060 0.443079 -17.587028 -10.220244 -0.174007 -0.310253 -0.922128 -19.389203 2.046695 -38.267228 2.750083 -66.717821 3.325173 0.000000 0.000000 0.000000 3.189334 -2.073214 0.176422 1.094924 11.087610 15.745017 1.019046 1.596864 -1.168694 -10.560958 -5.670963 62.588889 -0.233902 42.043305 1.250704 0.000000 0.000000 0.000000 
5.208192 110.545341 7.994583 0.000000 0.000000 0.000000 -36.229263 -48.698180 -27.806561 2.368973 13.660705 5.079324 30.786401 3.124860 -4.499693 -10.214595 12.124358 10.254587 -5.030874 -0.161385 0.114901 0.000000 0.000000 0.000000 -33.541174 -44.785257 -25.331758 9.135443 -9.214410 -6.157101 23.991833 3.426908 -6.541708 -8.191629 -14.471644 6.962020 -1.823476 0.218368 0.285051 0.000000 0.000000 0.000000 -36.409867 -46.032579 -27.839892 11.674275 -5.206900 -0.036313 2.873965 -2.091581 0.336359 0.634360 1.590204 0.271527 0.000000 0.000000 0.000000 3.029917 -2.102140 0.058950 0.708037 0.548335 -1.808818 -7.377566 -1.867830 4.623094 0.000000 0.000000 0.000000 3.421505 -2.246086 0.206813 0.498746 -17.575403 -10.076051 -0.267866 -0.411279 -1.057824 -19.451808 2.089307 -38.270609 2.776070 -66.635114 3.407051 0.000000 0.000000 0.000000 3.270444 -2.070370 0.193077 1.134653 11.166418 15.853747 1.149829 1.635554 -1.146037 -10.514189 -5.771258 62.469361 -0.246989 42.303320 1.254420 0.000000 0.000000 0.000000 
6.027960 110.856712 8.956682 0.000000 0.000000 0.000000 -37.644096 -50.221012 -29.820797 3.710276 13.889915 4.353188 29.490558 3.646130 -4.624131 -10.691810 13.488427 10.835933 -4.610630 -0.050224 -0.117954 0.000000 0.000000 0.000000 -34.950167 -46.709020 -27.288597 8.325207 -8.991604 -5.577111 25.625861 2.046838 -6.725514 -7.927206 -14.953857 6.329198 -2.435567 0.235362 0.533759 0.000000 0.000000 0.000000 -37.779791 -47.787487 -29.793821 11.491134 -5.163173 -0.084536 2.880099 -2.118723 0.358360 0.766473 1.475984 0.287761 0.000000 0.000000 0.000000 3.148280 -2.114170 0.088002 0.704453 0.541104 -1.804259 -7.516831 -1.791027 4.572766 0.000000 0.000000 0.000000 3.472226 -2.254562 0.222745 0.529875 -17.567894 -10.000311 -0.262045 -0.553870 -1.107683 -19.607959 2.177806 -38.341045 2.773075 -66.531008 3.495750 0.000000 0.000000 0.000000 3.319436 -2.086493 0.205435 1.167686 11.240290 15.954378 1.259041 1.755168 -1.092258 -10.462328 -5.906026 62.317164 -0.296790 42.560046 1.279805 0.000000 0.000000 0.000000 
6.867631 111.215057 9.870783 0.000000 0.000000 0.000000 -39.383383 -51.878582 -32.151196 4.989565 14.244926 3.547127 28.239115 4.315965 -4.644935 -10.835578 14.562365 10.976337 -4.290467 0.056126 -0.334739 0.000000 0.000000 0.000000 -36.646741 -48.677348 -29.528380 7.773036 -9.176002 -4.687806 27.696361 0.630069 -6.663028 -8.121321 -15.145002 5.622572 -3.348480 0.247490 0.838791 0.000000 0.000000 0.000000 -39.353221 -49.569193 -31.960774 11.332945 -5.119223 -0.060029 2.874409 -2.148221 0.363375 0.852412 1.326303 0.259739 0.000000 0.000000 0.000000 3.265727 -2.130345 0.109405 0.683927 0.535152 -1.801675 -7.582933 -1.726739 4.586690 0.000000 0.000000 0.000000 3.508493 -2.270827 0.220158 0.527294 -17.566080 -10.026141 -0.186101 -0.694251 -1.039785 -19.819501 2.279381 -38.474930 2.735144 -66.439525 3.570699 0.000000 0.000000 0.000000 3.339992 -2.111794 0.200673 1.186400 11.307966 16.051209 1.332836 1.926984 -1.031096 -10.387610 -6.037069 62.216781 -0.363867 42.720286 1.325632 0.000000 0.000000 0.000000 
